<svg width="24" height="24" viewBox="0 0 16 11" fill="none" xmlns="http://www.w3.org/2000/svg">
<path d="M8.9 10.4056H14.45C14.6271 10.4056 14.7966 10.3445 14.95 10.2584C15.1034 10.1722 15.2615 10.0642 15.35 9.91499C15.4385 9.76581 15.5001 9.59662 15.5 9.42438C15.4999 9.25214 15.4387 9.08299 15.35 8.93391L11.6 2.60556C11.5115 2.45643 11.4033 2.34827 11.25 2.26216C11.0967 2.17606 10.8771 2.11499 10.7 2.11499C10.5229 2.11499 10.3533 2.17606 10.2 2.26216C10.0466 2.34827 9.9385 2.45643 9.85 2.60556L8.9 4.22443L7 1.08469C6.9114 0.935566 6.8034 0.778441 6.65 0.692351C6.4966 0.606261 6.3271 0.594238 6.15 0.594238C5.9729 0.594238 5.8034 0.606261 5.65 0.692351C5.49662 0.778441 5.33859 0.935566 5.25 1.08469L0.6 8.93391C0.511349 9.08299 0.500077 9.25214 0.5 9.42438C0.499923 9.59662 0.511483 9.76581 0.6 9.91499C0.688518 10.0641 0.846623 10.1722 1 10.2584C1.15338 10.3445 1.32289 10.4056 1.5 10.4056H5C6.38685 10.4056 7.39625 9.7952 8.1 8.63952L9.8 5.74518L10.7 4.22443L13.45 8.83575H9.8L8.9 10.4056ZM4.95 8.83575H2.5L6.15 2.65462L8 5.74518L6.77455 7.84113C6.3072 8.59096 5.7744 8.83575 4.95 8.83575Z" fill="#00DC82"/>
</svg>
